<?xml version="1.0" encoding="utf-8"?>
<!-- Generator: Adobe Illustrator 27.0.0, SVG Export Plug-In . SVG Version: 6.00 Build 0)  -->
<svg version="1.1" id="图层_1" xmlns="http://www.w3.org/2000/svg" xmlns:xlink="http://www.w3.org/1999/xlink" x="0px" y="0px"
	 viewBox="0 0 1180 955" style="enable-background:new 0 0 1180 955;" xml:space="preserve">
<style type="text/css">
	.st0{enable-background:new    ;}
	.st1{fill:#d5d5d5;}
	.st2{fill:none;}
	.st3{clip-path:url(#SVGID_00000086684900480997477650000018420598544313896622_);}
	.st4{clip-path:url(#SVGID_00000140723826623250335370000004179785586114129832_);}
</style>
<g class="st0">
	<path class="st1" d="M465.8,229.3c1-4.2,3.1-7.9,6.1-10.9s6.9-5.1,11.4-6.4c4.3-1.2,8.5-1.3,12.4-0.3c3.9,0.9,7.2,2.8,10,5.6
		s4.7,6.3,5.9,10.5c0.7,2.6,0.9,4.9,0.7,7.1c-0.2,2.2-0.9,4-2,5.5s-2.5,2.4-4.3,2.9c-1.6,0.4-3,0.4-4.4-0.2c-1.4-0.6-2.5-1.6-3.4-3
		l-0.4,0.1c-0.3,1.9-1,3.5-2.2,4.8s-2.7,2.2-4.7,2.7s-3.9,0.5-5.8,0s-3.5-1.5-4.9-3s-2.4-3.3-3-5.5c-0.6-2.3-0.7-4.4-0.2-6.4
		c0.4-2,1.3-3.8,2.7-5.2c1.3-1.4,3-2.4,5-3c1.7-0.4,3.3-0.4,4.9,0c1.6,0.5,2.9,1.2,4,2.4l0.3-0.1l-0.9-3.5l4.6-1.2l3.6,13.3
		c0.3,1.2,0.8,2.1,1.5,2.7c0.7,0.6,1.4,0.7,2.3,0.5c1.1-0.3,1.8-1.3,2.1-3c0.3-1.7,0.1-3.7-0.5-6.2c-0.9-3.3-2.4-6.1-4.6-8.3
		s-4.8-3.7-7.8-4.5s-6.2-0.7-9.6,0.2c-3.6,1-6.6,2.7-9,5.1c-2.4,2.4-4,5.3-4.7,8.7c-0.8,3.4-0.7,7,0.3,10.7c1,3.6,2.6,6.5,4.9,8.9
		s5.1,4,8.4,4.8c3.2,0.8,6.6,0.7,10.2-0.2c1.9-0.5,3.8-1.3,5.7-2.4c1.9-1.1,3.5-2.4,4.9-3.8l3.2,3.7c-1.5,1.6-3.4,3.1-5.6,4.4
		s-4.5,2.2-6.8,2.9c-4.6,1.2-8.9,1.3-13.1,0.3c-4.1-1-7.7-3-10.6-6c-3-3-5-6.7-6.2-11.2C464.9,237.9,464.8,233.5,465.8,229.3z
		 M485.9,241.5c1.4,0.9,3,1,4.7,0.6c1.8-0.5,3.1-1.5,4-2.9c0.8-1.4,1-3.1,0.5-4.9c-0.5-1.9-1.5-3.4-3-4.3c-1.5-0.9-3.1-1.1-4.9-0.7
		c-1.7,0.5-3,1.5-3.7,3c-0.8,1.5-0.9,3.2-0.4,5.2C483.6,239.3,484.5,240.7,485.9,241.5z"/>
	<path class="st1" d="M571.5,233.5c0.5,2,0.7,3.6,0.5,4.8s-0.9,2.2-1.9,2.9s-2.6,1.4-4.6,1.9l-6.8,1.8l-2.4-4.9l6-1.6
		c1.2-0.3,2-0.6,2.5-1c0.5-0.3,0.8-0.8,0.9-1.3c0.1-0.6,0-1.4-0.3-2.4l-9.7-36.4l-35.2,9.4l12.3,45.7l-5.7,1.5L513.3,203l46.7-12.5
		L571.5,233.5z M525.2,211.7l29-7.8l1.3,5l-29,7.8L525.2,211.7z M530.9,221.3l22.9-6.1l5.2,19.3l-22.9,6.1L530.9,221.3z
		 M537.4,224.8l2.6,9.6l12.6-3.4l-2.6-9.6L537.4,224.8z"/>
	<path class="st1" d="M607.7,174.5l1.6,6l13.6-3.6l1.5,5.4l-13.6,3.6l1.2,4.5l-5.6,1.5l-1.2-4.5l-13.6,3.6l1.1,4.1l-5.6,1.5
		l-1.1-4.1l-13.4,3.6l-1.5-5.4l13.4-3.6l-1.6-6l5.6-1.5l1.6,6l13.6-3.6l-1.6-6L607.7,174.5z M593.5,198.4c-0.9,3.5-1.8,6.5-2.7,9.1
		l7.5,28l-5.5,1.5l-5.6-21c-1.4,2.9-3.1,5.9-5.1,9l-4-5.2c2.4-3.6,4.3-7.2,5.7-10.5s2.7-7.4,3.8-12.1L593.5,198.4z M626.2,212.5
		c-0.5-1.7-0.7-2.8-0.8-3.2l5.6-0.3c0.2,0.8,0.8,3.2,1.7,7.3c0.5,2.1,0.6,3.7,0.4,4.9s-0.9,2.2-2,2.9c-1.1,0.7-2.7,1.4-4.9,2
		l-8.8,2.4c-2.6,0.7-4.6,0.6-6.1-0.2c-1.5-0.9-2.6-2.7-3.3-5.5l-1.7-6.4c-2.2,2-4.6,4.2-7.4,6.4l-3.7-4.9c2.9-2.2,6-4.9,9.3-8
		l-3.9-14.6l5.7-1.5l3,11.3c4.7-4.9,8.7-9.8,12-14.7l4.8,3.6c-3.9,5.6-8.9,11.6-15,17.8l2.1,7.7c0.4,1.6,1,2.6,1.7,3
		c0.7,0.5,1.8,0.5,3.2,0.1l5.3-1.4c1.3-0.3,2.2-0.7,2.8-1.1c0.6-0.4,0.9-0.9,1-1.5c0.1-0.6,0-1.6-0.3-2.8L626.2,212.5z"/>
	<path class="st1" d="M631.4,169.7l4.6-1.2l5.1,19.1c1.8,6.9,3.2,12.2,3.9,16c0.8,3.8,1.3,7,1.4,9.7c0.2,2.7,0,5.7-0.3,9.1l-5-2.7
		c0.4-2.6,0.5-5.1,0.4-7.4c-0.1-2.3-0.5-5.3-1.3-8.8c-0.7-3.5-1.9-8.4-3.6-14.6L631.4,169.7z M656.9,215l-4.4,1.2l-12.4-46.3
		l4.4-1.2L656.9,215z M665.8,215.6l-4.6,1.2l-13.8-51.4l4.6-1.2L665.8,215.6z M666.3,173.2c0-3.2-0.1-5.2-0.1-6.2l-10.4,2.8
		l-1.2-4.6l27-7.2l1.2,4.6l-11.5,3.1c0.1,1.8,0.2,3.9,0.2,6.2l10.4-2.8l7.4,27.5l-4.7,1.3l-6.1-22.7l-13.6,3.6l6.1,22.8l-4.6,1.2
		l-7.4-27.5L666.3,173.2z M692.6,210.1c-4.3-2.4-8.9-4.7-13.7-7.2c-0.5,2.1-1.6,4.2-3,6.4c-1.5,2.2-3.6,4.6-6.2,7.2l-4-3.7
		c3.1-3,5.4-5.5,6.7-7.7c1.3-2.1,2-4.3,2-6.4c0-2.1-0.4-4.9-1.3-8.2l-2.8-10.4l4.8-1.3l3.1,11.5c0.7,2.6,1.1,5,1.3,7.1
		c2.5,1.1,5.1,2.3,7.9,3.7c2.8,1.3,5.3,2.6,7.5,3.7L692.6,210.1z"/>
</g>
<rect y="-55" class="st2" width="1180" height="1010"/>
<g>
	<g>
		<g>
			<defs>
				<rect id="SVGID_1_" y="-55" width="323" height="1010"/>
			</defs>
			<clipPath id="SVGID_00000085961110842489258450000000710843320851512463_">
				<use xlink:href="#SVGID_1_"  style="overflow:visible;"/>
			</clipPath>
			<g style="clip-path:url(#SVGID_00000085961110842489258450000000710843320851512463_);">
				<g class="st0">
					<path class="st1" d="M30.7,739.1c1-4.2,3.1-7.9,6.1-10.9s6.9-5.1,11.4-6.4c4.3-1.2,8.5-1.3,12.4-0.3s7.2,2.8,10,5.6
						s4.7,6.3,5.9,10.5c0.7,2.6,0.9,4.9,0.7,7.1c-0.2,2.2-0.9,4-2,5.5s-2.5,2.4-4.3,2.9c-1.6,0.4-3,0.4-4.4-0.2
						c-1.4-0.6-2.5-1.6-3.4-3l-0.4,0.1c-0.3,1.9-1,3.5-2.2,4.8s-2.7,2.2-4.7,2.7s-3.9,0.5-5.8,0c-1.9-0.5-3.5-1.5-4.9-3
						s-2.4-3.3-3-5.5c-0.6-2.3-0.7-4.4-0.2-6.4c0.4-2,1.3-3.8,2.7-5.2c1.3-1.4,3-2.4,5-3c1.7-0.4,3.3-0.4,4.9,0
						c1.6,0.5,2.9,1.2,4,2.4l0.3-0.1l-0.9-3.5l4.6-1.2l3.6,13.3c0.3,1.2,0.8,2.1,1.5,2.7c0.7,0.6,1.4,0.7,2.3,0.5
						c1.1-0.3,1.8-1.3,2.1-3s0.1-3.7-0.5-6.2c-0.9-3.3-2.4-6.1-4.6-8.3c-2.2-2.2-4.8-3.7-7.8-4.5s-6.2-0.7-9.6,0.2
						c-3.6,1-6.6,2.7-9,5.1c-2.4,2.4-4,5.3-4.7,8.7c-0.8,3.4-0.7,7,0.3,10.7c1,3.6,2.6,6.5,4.9,8.9c2.3,2.4,5.1,4,8.4,4.8
						c3.2,0.8,6.6,0.7,10.2-0.2c1.9-0.5,3.8-1.3,5.7-2.4c1.9-1.1,3.5-2.4,4.9-3.8l3.2,3.7c-1.5,1.6-3.4,3.1-5.6,4.4
						c-2.2,1.3-4.5,2.2-6.8,2.9c-4.6,1.2-8.9,1.3-13.1,0.3c-4.1-1-7.7-3-10.6-6c-3-3-5-6.7-6.2-11.2
						C29.8,747.8,29.7,743.3,30.7,739.1z M50.8,751.4c1.4,0.9,3,1,4.7,0.6c1.8-0.5,3.1-1.5,4-2.9s1-3.1,0.5-4.9
						c-0.5-1.9-1.5-3.4-3-4.3c-1.5-0.9-3.1-1.1-4.9-0.7c-1.7,0.5-3,1.5-3.7,3c-0.8,1.5-0.9,3.2-0.4,5.2
						C48.5,749.2,49.4,750.5,50.8,751.4z"/>
					<path class="st1" d="M136.4,743.3c0.5,2,0.7,3.6,0.5,4.8s-0.9,2.2-1.9,2.9s-2.6,1.4-4.6,1.9l-6.8,1.8l-2.4-4.9l6-1.6
						c1.2-0.3,2-0.6,2.5-1c0.5-0.3,0.8-0.8,0.9-1.3s0-1.4-0.3-2.4l-9.7-36.4l-35.2,9.4l12.3,45.7l-5.7,1.5l-13.6-50.9l46.7-12.5
						L136.4,743.3z M90.1,721.5l29-7.8l1.3,5l-29,7.8L90.1,721.5z M95.8,731.1l22.9-6.1l5.2,19.3l-22.9,6.1L95.8,731.1z
						 M102.3,734.6l2.6,9.6l12.6-3.4l-2.6-9.6L102.3,734.6z"/>
					<path class="st1" d="M172.6,684.4l1.6,6l13.6-3.6l1.5,5.4l-13.6,3.6l1.2,4.5l-5.6,1.5l-1.2-4.5l-13.6,3.6l1.1,4.1l-5.6,1.5
						l-1.1-4.1l-13.4,3.6l-1.5-5.4l13.4-3.6l-1.6-6l5.6-1.5l1.6,6l13.6-3.6l-1.6-6L172.6,684.4z M158.4,708.2
						c-0.9,3.5-1.8,6.5-2.7,9.1l7.5,28l-5.5,1.5l-5.6-21c-1.4,2.9-3.1,5.9-5.1,9l-4-5.2c2.4-3.6,4.3-7.2,5.7-10.5s2.7-7.4,3.8-12.1
						L158.4,708.2z M191.1,722.4c-0.5-1.7-0.7-2.8-0.8-3.2l5.6-0.3c0.2,0.8,0.8,3.2,1.7,7.3c0.5,2.1,0.6,3.7,0.4,4.9s-0.9,2.2-2,2.9
						c-1.1,0.7-2.7,1.4-4.9,2l-8.8,2.4c-2.6,0.7-4.6,0.6-6.1-0.2c-1.5-0.9-2.6-2.7-3.3-5.5l-1.7-6.4c-2.2,2-4.6,4.2-7.4,6.4
						l-3.7-4.9c2.9-2.2,6-4.9,9.3-8l-3.9-14.6l5.7-1.5l3,11.3c4.7-4.9,8.7-9.8,12-14.7l4.8,3.6c-3.9,5.6-8.9,11.6-15,17.8l2.1,7.7
						c0.4,1.6,1,2.6,1.7,3c0.7,0.5,1.8,0.5,3.2,0.1l5.3-1.4c1.3-0.3,2.2-0.7,2.8-1.1c0.6-0.4,0.9-0.9,1-1.5c0.1-0.6,0-1.6-0.3-2.8
						L191.1,722.4z"/>
					<path class="st1" d="M196.3,679.6l4.6-1.2l5.1,19.1c1.8,6.9,3.2,12.2,3.9,16c0.8,3.8,1.3,7,1.4,9.7c0.2,2.7,0,5.7-0.3,9.1
						l-5-2.7c0.4-2.6,0.5-5.1,0.4-7.4c-0.1-2.3-0.5-5.3-1.3-8.8c-0.7-3.5-1.9-8.4-3.6-14.6L196.3,679.6z M221.8,724.8l-4.4,1.2
						L205,679.7l4.4-1.2L221.8,724.8z M230.7,725.4l-4.6,1.2l-13.8-51.4l4.6-1.2L230.7,725.4z M231.2,683c0-3.2-0.1-5.2-0.1-6.2
						l-10.4,2.8l-1.2-4.6l27-7.2l1.2,4.6l-11.5,3.1c0.1,1.8,0.2,3.9,0.2,6.2l10.4-2.8l7.4,27.5l-4.7,1.3l-6.1-22.7l-13.6,3.6
						l6.1,22.8l-4.6,1.2l-7.4-27.5L231.2,683z M257.5,720c-4.3-2.4-8.9-4.7-13.7-7.2c-0.5,2.1-1.6,4.2-3,6.4
						c-1.5,2.2-3.6,4.6-6.2,7.2l-4-3.7c3.1-3,5.4-5.5,6.7-7.7c1.3-2.1,2-4.3,2-6.4c0-2.1-0.4-4.9-1.3-8.2l-2.8-10.4l4.8-1.3
						l3.1,11.5c0.7,2.6,1.1,5,1.3,7.1c2.5,1.1,5.1,2.3,7.9,3.7c2.8,1.3,5.3,2.6,7.5,3.7L257.5,720z"/>
				</g>
			</g>
		</g>
	</g>
</g>
<g>
	<g>
		<g>
			<defs>
				<rect id="SVGID_00000020391861579228925800000009261510063436615335_" x="845" y="-64" width="335" height="1019"/>
			</defs>
			<clipPath id="SVGID_00000065068593320833578050000005802002143376851865_">
				<use xlink:href="#SVGID_00000020391861579228925800000009261510063436615335_"  style="overflow:visible;"/>
			</clipPath>
			<g style="clip-path:url(#SVGID_00000065068593320833578050000005802002143376851865_);">
				<g class="st0">
					<path class="st1" d="M899,739.1c1-4.2,3.1-7.9,6.1-10.9s6.9-5.1,11.4-6.4c4.3-1.2,8.5-1.3,12.4-0.3s7.2,2.8,10,5.6
						s4.7,6.3,5.9,10.5c0.7,2.6,0.9,4.9,0.7,7.1c-0.2,2.2-0.9,4-2,5.5s-2.5,2.4-4.3,2.9c-1.6,0.4-3,0.4-4.4-0.2
						c-1.4-0.6-2.5-1.6-3.4-3L931,750c-0.3,1.9-1,3.5-2.2,4.8s-2.7,2.2-4.7,2.7s-3.9,0.5-5.8,0c-1.9-0.5-3.5-1.5-4.9-3
						s-2.4-3.3-3-5.5c-0.6-2.3-0.7-4.4-0.2-6.4c0.4-2,1.3-3.8,2.7-5.2c1.3-1.4,3-2.4,5-3c1.7-0.4,3.3-0.4,4.9,0
						c1.6,0.5,2.9,1.2,4,2.4l0.3-0.1l-0.9-3.5l4.6-1.2l3.6,13.3c0.3,1.2,0.8,2.1,1.5,2.7c0.7,0.6,1.4,0.7,2.3,0.5
						c1.1-0.3,1.8-1.3,2.1-3s0.1-3.7-0.5-6.2c-0.9-3.3-2.4-6.1-4.6-8.3c-2.2-2.2-4.8-3.7-7.8-4.5s-6.2-0.7-9.6,0.2
						c-3.6,1-6.6,2.7-9,5.1c-2.4,2.4-4,5.3-4.7,8.7c-0.8,3.4-0.7,7,0.3,10.7c1,3.6,2.6,6.5,4.9,8.9c2.3,2.4,5.1,4,8.4,4.8
						c3.2,0.8,6.6,0.7,10.2-0.2c1.9-0.5,3.8-1.3,5.7-2.4c1.9-1.1,3.5-2.4,4.9-3.8l3.2,3.7c-1.5,1.6-3.4,3.1-5.6,4.4
						c-2.2,1.3-4.5,2.2-6.8,2.9c-4.6,1.2-8.9,1.3-13.1,0.3c-4.1-1-7.7-3-10.6-6c-3-3-5-6.7-6.2-11.2
						C898.1,747.8,898,743.3,899,739.1z M919.1,751.4c1.4,0.9,3,1,4.7,0.6c1.8-0.5,3.1-1.5,4-2.9s1-3.1,0.5-4.9
						c-0.5-1.9-1.5-3.4-3-4.3c-1.5-0.9-3.1-1.1-4.9-0.7c-1.7,0.5-3,1.5-3.7,3c-0.8,1.5-0.9,3.2-0.4,5.2
						C916.8,749.2,917.7,750.5,919.1,751.4z"/>
					<path class="st1" d="M1004.7,743.3c0.5,2,0.7,3.6,0.5,4.8s-0.9,2.2-1.9,2.9s-2.6,1.4-4.6,1.9l-6.8,1.8l-2.4-4.9l6-1.6
						c1.2-0.3,2-0.6,2.5-1c0.5-0.3,0.8-0.8,0.9-1.3s0-1.4-0.3-2.4l-9.7-36.4l-35.2,9.4l12.3,45.7l-5.7,1.5l-13.6-50.9l46.7-12.5
						L1004.7,743.3z M958.4,721.5l29-7.8l1.3,5l-29,7.8L958.4,721.5z M964.1,731.1L987,725l5.2,19.3l-22.9,6.1L964.1,731.1z
						 M970.6,734.6l2.6,9.6l12.6-3.4l-2.6-9.6L970.6,734.6z"/>
					<path class="st1" d="M1040.9,684.4l1.6,6l13.6-3.6l1.5,5.4l-13.6,3.6l1.2,4.5l-5.6,1.5l-1.2-4.5l-13.6,3.6l1.1,4.1l-5.6,1.5
						l-1.1-4.1l-13.4,3.6l-1.5-5.4l13.4-3.6l-1.6-6l5.6-1.5l1.6,6l13.6-3.6l-1.6-6L1040.9,684.4z M1026.7,708.2
						c-0.9,3.5-1.8,6.5-2.7,9.1l7.5,28l-5.5,1.5l-5.6-21c-1.4,2.9-3.1,5.9-5.1,9l-4-5.2c2.4-3.6,4.3-7.2,5.7-10.5s2.7-7.4,3.8-12.1
						L1026.7,708.2z M1059.4,722.4c-0.5-1.7-0.7-2.8-0.8-3.2l5.6-0.3c0.2,0.8,0.8,3.2,1.7,7.3c0.5,2.1,0.6,3.7,0.4,4.9
						s-0.9,2.2-2,2.9s-2.7,1.4-4.9,2l-8.8,2.4c-2.6,0.7-4.6,0.6-6.1-0.2c-1.5-0.9-2.6-2.7-3.3-5.5l-1.7-6.4c-2.2,2-4.6,4.2-7.4,6.4
						l-3.7-4.9c2.9-2.2,6-4.9,9.3-8l-3.9-14.6l5.7-1.5l3,11.3c4.7-4.9,8.7-9.8,12-14.7l4.8,3.6c-3.9,5.6-8.9,11.6-15,17.8l2.1,7.7
						c0.4,1.6,1,2.6,1.7,3c0.7,0.5,1.8,0.5,3.2,0.1l5.3-1.4c1.3-0.3,2.2-0.7,2.8-1.1c0.6-0.4,0.9-0.9,1-1.5s0-1.6-0.3-2.8
						L1059.4,722.4z"/>
					<path class="st1" d="M1064.6,679.6l4.6-1.2l5.1,19.1c1.8,6.9,3.2,12.2,3.9,16c0.8,3.8,1.3,7,1.4,9.7c0.2,2.7,0,5.7-0.3,9.1
						l-5-2.7c0.4-2.6,0.5-5.1,0.4-7.4c-0.1-2.3-0.5-5.3-1.3-8.8c-0.7-3.5-1.9-8.4-3.6-14.6L1064.6,679.6z M1090.1,724.8l-4.4,1.2
						l-12.4-46.3l4.4-1.2L1090.1,724.8z M1099,725.4l-4.6,1.2l-13.8-51.4l4.6-1.2L1099,725.4z M1099.5,683c0-3.2-0.1-5.2-0.1-6.2
						l-10.4,2.8l-1.2-4.6l27-7.2l1.2,4.6l-11.5,3.1c0.1,1.8,0.2,3.9,0.2,6.2l10.4-2.8l7.4,27.5l-4.7,1.3l-6.1-22.7l-13.6,3.6
						l6.1,22.8l-4.6,1.2l-7.4-27.5L1099.5,683z M1125.8,720c-4.3-2.4-8.9-4.7-13.7-7.2c-0.5,2.1-1.6,4.2-3,6.4
						c-1.5,2.2-3.6,4.6-6.2,7.2l-4-3.7c3.1-3,5.4-5.5,6.7-7.7c1.3-2.1,2-4.3,2-6.4c0-2.1-0.4-4.9-1.3-8.2l-2.8-10.4l4.8-1.3
						l3.1,11.5c0.7,2.6,1.1,5,1.3,7.1c2.5,1.1,5.1,2.3,7.9,3.7c2.8,1.3,5.3,2.6,7.5,3.7L1125.8,720z"/>
				</g>
			</g>
		</g>
	</g>
</g>
</svg>
